<svg width="376" height="440" viewBox="0 0 376 440" fill="none" xmlns="http://www.w3.org/2000/svg">
<rect x="268" width="108" height="306" rx="5" fill="#474A4B"/>
<rect x="134" width="108" height="152" rx="5" fill="#474A4B"/>
<rect width="108" height="152" rx="5" fill="#474A4B"/>
<rect x="9" y="9" width="34" height="9" rx="4.5" fill="#5F6061"/>
<rect x="144" y="9" width="61" height="9" rx="4.5" fill="#5F6061"/>
<rect x="279" y="9" width="21" height="9" rx="4.5" fill="#5F6061"/>
<rect x="84" y="9" width="12" height="9" rx="4.5" fill="#828789"/>
<rect x="224" y="9" width="12" height="9" rx="4.5" fill="#828789"/>
<rect x="354" y="9" width="12" height="9" rx="4.5" fill="#828789"/>
<rect x="9" y="63" width="87" height="29" rx="5" fill="#6A6D6E"/>
<rect x="9" y="100" width="87" height="29" rx="5" fill="#6A6D6E"/>
<rect x="279" y="26" width="87" height="29" rx="5" fill="#6A6D6E"/>
<rect x="279" y="63" width="87" height="29" rx="5" fill="#6A6D6E"/>
<rect x="143" y="24" width="87" height="29" rx="5" fill="#6A6D6E"/>
<rect x="9" y="26" width="87" height="29" rx="5" fill="#6A6D6E"/>
<rect x="15" y="34" width="16" height="4" rx="2" fill="#868686"/>
<rect x="34" y="34" width="31" height="4" rx="2" fill="#868686"/>
<rect x="15" y="42" width="31" height="4" rx="2" fill="#868686"/>
<rect x="50" y="42" width="9" height="4" rx="2" fill="#868686"/>
<rect x="63" y="42" width="14" height="4" rx="2" fill="#868686"/>
<rect x="68" y="34" width="21" height="4" rx="2" fill="#868686"/>
<rect x="17" y="70" width="16" height="4" rx="2" fill="#868686"/>
<rect x="36" y="70" width="31" height="4" rx="2" fill="#868686"/>
<rect x="17" y="78" width="31" height="4" rx="2" fill="#868686"/>
<rect x="52" y="78" width="9" height="4" rx="2" fill="#868686"/>
<rect x="65" y="78" width="14" height="4" rx="2" fill="#868686"/>
<rect x="70" y="70" width="21" height="4" rx="2" fill="#868686"/>
<rect x="15" y="107" width="16" height="4" rx="2" fill="#868686"/>
<rect x="34" y="107" width="31" height="4" rx="2" fill="#868686"/>
<rect x="15" y="115" width="31" height="4" rx="2" fill="#868686"/>
<rect x="50" y="115" width="9" height="4" rx="2" fill="#868686"/>
<rect x="63" y="115" width="14" height="4" rx="2" fill="#868686"/>
<rect x="68" y="107" width="21" height="4" rx="2" fill="#868686"/>
<rect x="150" y="30" width="16" height="4" rx="2" fill="#868686"/>
<rect x="169" y="30" width="31" height="4" rx="2" fill="#868686"/>
<rect x="150" y="38" width="31" height="4" rx="2" fill="#868686"/>
<rect x="185" y="38" width="9" height="4" rx="2" fill="#868686"/>
<rect x="198" y="38" width="14" height="4" rx="2" fill="#868686"/>
<rect x="203" y="30" width="21" height="4" rx="2" fill="#868686"/>
<rect x="286" y="34" width="16" height="4" rx="2" fill="#868686"/>
<rect x="305" y="34" width="31" height="4" rx="2" fill="#868686"/>
<rect x="286" y="42" width="31" height="4" rx="2" fill="#868686"/>
<rect x="321" y="42" width="9" height="4" rx="2" fill="#868686"/>
<rect x="334" y="42" width="14" height="4" rx="2" fill="#868686"/>
<rect x="339" y="34" width="21" height="4" rx="2" fill="#868686"/>
<rect x="286" y="70" width="16" height="4" rx="2" fill="#868686"/>
<rect x="305" y="70" width="31" height="4" rx="2" fill="#868686"/>
<rect x="286" y="78" width="31" height="4" rx="2" fill="#868686"/>
<rect x="321" y="78" width="9" height="4" rx="2" fill="#868686"/>
<rect x="334" y="78" width="14" height="4" rx="2" fill="#868686"/>
<rect x="339" y="70" width="21" height="4" rx="2" fill="#868686"/>
<circle cx="17.5" cy="50.5" r="2.5" fill="#EE8383"/>
<circle cx="24.5" cy="50.5" r="2.5" fill="#83D4EE"/>
<circle cx="16.5" cy="124.5" r="2.5" fill="#EE8383"/>
<circle cx="152.5" cy="47.5" r="2.5" fill="#EE8383"/>
<circle cx="159.5" cy="47.5" r="2.5" fill="#83D4EE"/>
<circle cx="166.5" cy="47.5" r="2.5" fill="#FFD43D"/>
<circle cx="286.5" cy="49.5" r="2.5" fill="#EE8383"/>
<circle cx="293.5" cy="49.5" r="2.5" fill="#83D4EE"/>
<path fill-rule="evenodd" clip-rule="evenodd" d="M244.474 421.281L245.527 433.626L256.368 433.887L254.357 420.818L244.474 421.281Z" fill="#E49D75"/>
<path fill-rule="evenodd" clip-rule="evenodd" d="M145.69 399.271L140.656 416.238L145.797 421.584L154.918 406.733L145.69 399.271Z" fill="#E49D75"/>
<path fill-rule="evenodd" clip-rule="evenodd" d="M243.683 430.852L243.487 440L271.903 439.828C272.099 439.958 271.956 435.343 271.956 435.343L255.047 430.721L243.683 430.852Z" fill="black"/>
<path fill-rule="evenodd" clip-rule="evenodd" d="M140.27 413.333L134.499 421.192L146.565 438.253L157.964 438.331L157.81 432.568L153.24 430.548L149.189 420.515L140.27 413.333Z" fill="black"/>
<path fill-rule="evenodd" clip-rule="evenodd" d="M254 93.3061C254 91.3873 255.363 89.7388 257.247 89.3777L308.788 79.499C311.399 78.9985 313.763 81.1375 313.525 83.7856L310.368 118.911C310.166 121.152 308.157 122.786 305.922 122.527L257.539 116.911C255.522 116.677 254 114.968 254 112.937V93.3061Z" fill="url(#paint0_linear)"/>
<path fill-rule="evenodd" clip-rule="evenodd" d="M190.533 133.072C193.425 132.436 203.718 132.71 206.473 131.236C209.228 129.763 243.231 104.325 246.652 100.862C250.073 97.3985 254.303 94.3926 257.361 90.6262C260.42 86.8599 257.463 97.2975 254.791 99.353C254.482 102.145 254.404 107.991 254.404 107.991C253.697 107.866 252.972 107.893 252.276 108.068C251.58 108.243 250.928 108.563 250.364 109.007C248.437 110.515 220.556 143.278 220.556 143.278C220.556 143.278 187.642 133.714 190.533 133.072Z" fill="#E49D75"/>
<path fill-rule="evenodd" clip-rule="evenodd" d="M165.277 230.95C163.551 237.484 160.225 283.227 170.453 306.11C166.014 322.845 143.471 400.834 143.471 400.834L154.68 410.695L212.464 323.368C212.464 323.368 200.434 227.837 165.277 230.95Z" fill="#5FC5D1"/>
<path fill-rule="evenodd" clip-rule="evenodd" d="M224.275 228.122C226.613 234.615 250.507 319.803 250.507 319.803L255.91 423.283L243.546 424.257L205.14 320.059C200.452 314.754 170.667 243.55 169.329 234.413C175.183 228.199 221.937 221.623 224.275 228.122Z" fill="#6BD5E1"/>
<path fill-rule="evenodd" clip-rule="evenodd" d="M181.282 128.943C185.988 128.943 212.643 135.395 217.653 145.791C220.407 151.506 232.491 221.373 225.78 232.357C219.069 243.342 172.827 242.872 163.807 234.591C158.732 229.946 157.096 128.908 181.282 128.943Z" fill="#FFD98E"/>
<path fill-rule="evenodd" clip-rule="evenodd" d="M175.379 117.05H185.589V136.832C181.918 139.749 175.379 136.832 175.379 136.832V117.05Z" fill="#E49D75"/>
<path fill-rule="evenodd" clip-rule="evenodd" d="M162.32 99.1689C162.32 86.8421 170.703 76.85 181.049 76.85C191.396 76.85 199.773 86.8421 199.773 99.1689C199.773 111.496 191.39 121.494 181.049 121.494C170.709 121.494 162.32 111.496 162.32 99.1689Z" fill="#E49D75"/>
<path fill-rule="evenodd" clip-rule="evenodd" d="M178.795 73.1786C184.792 73.042 192.414 76.8499 192.414 79.4935C192.414 84.0678 185.31 94.4401 180.02 98.6936C181.502 102.109 182.858 104.367 182.858 107.266C182.858 110.165 178.343 121.523 178.343 129.246C178.343 135.306 179.699 139.428 179.699 144.454C179.699 158.183 170.727 166.494 157.75 166.494C144.774 166.494 136.057 152.444 136.004 141.038C135.938 127.054 151.473 109.892 155.24 99.347C158.411 90.448 164.414 73.1786 178.795 73.1786Z" fill="black"/>
<path fill-rule="evenodd" clip-rule="evenodd" d="M174.832 100.321C174.832 99.3952 175.107 98.4899 175.623 97.72C176.138 96.95 176.871 96.35 177.728 95.9959C178.585 95.6418 179.528 95.5494 180.437 95.7305C181.347 95.9116 182.182 96.3581 182.838 97.0133C183.493 97.6686 183.939 98.5033 184.12 99.4117C184.3 100.32 184.206 101.262 183.85 102.117C183.495 102.972 182.893 103.703 182.121 104.217C181.349 104.73 180.442 105.004 179.515 105.003C178.899 105.003 178.29 104.881 177.721 104.646C177.153 104.411 176.636 104.066 176.201 103.631C175.767 103.196 175.422 102.68 175.187 102.112C174.952 101.544 174.831 100.936 174.832 100.321V100.321Z" fill="#E49D75"/>
<path fill-rule="evenodd" clip-rule="evenodd" d="M225.268 166.922C230.528 168.169 252.072 171.775 256.207 170.486C260.342 169.197 302.943 128.634 306.263 125.634C309.583 122.634 316.246 118.387 317.05 113.195C317.853 108.003 317.05 103.559 309.827 100.957C309.963 104.307 310.094 109.535 309.951 108.757C308.732 104.717 308.589 100.137 306.382 100.191C305.192 103.969 306.869 111.092 303.942 115.862C300.581 119.51 255.933 148.761 251.245 150.24C245.129 150.24 229.445 144.894 229.445 144.894C229.445 144.894 220.015 165.674 225.268 166.922Z" fill="#E49D75"/>
<path fill-rule="evenodd" clip-rule="evenodd" d="M190.302 145.969C193.943 130.702 225.887 138.775 231.26 143.058C233.14 148.874 230.183 166.126 225.489 169.328C218.438 170.349 186.422 162.211 190.302 145.969Z" fill="#FFE4AD"/>
<ellipse cx="260" cy="111.859" rx="2" ry="2.5" fill="#EE8383"/>
<defs>
<linearGradient id="paint0_linear" x1="260.5" y1="92" x2="306.5" y2="93.5" gradientUnits="userSpaceOnUse">
<stop stop-color="#6A6D6E"/>
<stop offset="1" stop-color="#9AA0A2"/>
</linearGradient>
</defs>
</svg>
