<svg width="10" height="15" viewBox="0 0 10 15" xmlns="http://www.w3.org/2000/svg">
<path d="M5 15L5.71429 13.5V11.25H9.28571C9.47515 11.25 9.65684 11.171 9.79079 11.0303C9.92475 10.8897 10 10.6989 10 10.5V9.3105C10 8.916 9.84714 8.529 9.58143 8.25L8.57143 7.1895V4.5C8.76087 4.5 8.94255 4.42098 9.07651 4.28033C9.21046 4.13968 9.28571 3.94891 9.28571 3.75V1.5C9.28571 0.67275 8.645 0 7.85714 0H2.14286C1.355 0 0.714286 0.67275 0.714286 1.5V3.75C0.714286 3.94891 0.789541 4.13968 0.923495 4.28033C1.05745 4.42098 1.23913 4.5 1.42857 4.5V7.1895L0.418571 8.25C0.151305 8.5317 0.000860877 8.91287 0 9.3105V10.5C0 10.6989 0.075255 10.8897 0.20921 11.0303C0.343164 11.171 0.524845 11.25 0.714286 11.25H4.28571V13.5L5 15Z"/>
</svg>
