<svg width="16" height="16" viewBox="0 0 16 16" xmlns="http://www.w3.org/2000/svg">
<path d="M15 16H1C0.71875 16 0.481771 15.9036 0.289062 15.7109C0.0963542 15.5182 0 15.2812 0 15V5C0 4.72917 0.0963542 4.49479 0.289062 4.29688C0.481771 4.09896 0.71875 4 1 4H6V5C6 5.67708 6.1849 6.17969 6.55469 6.50781C6.92448 6.83594 7.40625 7 8 7C8.58333 7 9.0625 6.82812 9.4375 6.48438C9.8125 6.14062 10 5.64583 10 5V4H15C15.2708 4 15.5052 4.09896 15.7031 4.29688C15.901 4.49479 16 4.72917 16 5V15C16 15.2812 15.9036 15.5182 15.7109 15.7109C15.5182 15.9036 15.2812 16 15 16ZM5.5 12.5938V12.3125C6.5 11.9062 7 10.8021 7 9C7 8.34375 6.76823 7.84635 6.30469 7.50781C5.84115 7.16927 5.24219 7 4.50781 7C3.77344 7 3.17188 7.16927 2.70312 7.50781C2.23438 7.84635 2 8.34375 2 9C2 10.75 2.5 11.8438 3.5 12.2812V12.5938C2.78125 12.7188 2.1875 12.9531 1.71875 13.2969C1.25 13.6406 1.01042 14.0312 1 14.4688C1 14.5938 1.11198 14.6953 1.33594 14.7734C1.5599 14.8516 1.88802 14.9062 2.32031 14.9375C2.7526 14.9688 3.10938 14.987 3.39062 14.9922C3.67188 14.9974 4.04167 15 4.5 15C4.95833 15 5.32812 14.9974 5.60938 14.9922C5.89062 14.987 6.2474 14.9688 6.67969 14.9375C7.11198 14.9062 7.4401 14.8516 7.66406 14.7734C7.88802 14.6953 8 14.5938 8 14.4688C7.98958 14.0312 7.7526 13.6406 7.28906 13.2969C6.82552 12.9531 6.22917 12.7188 5.5 12.5938ZM13.5 9H9.5C9.36458 9 9.2474 9.04948 9.14844 9.14844C9.04948 9.2474 9 9.36458 9 9.5C9 9.63542 9.04948 9.7526 9.14844 9.85156C9.2474 9.95052 9.36458 10 9.5 10H13.5C13.6354 10 13.7526 9.95052 13.8516 9.85156C13.9505 9.7526 14 9.63542 14 9.5C14 9.36458 13.9505 9.2474 13.8516 9.14844C13.7526 9.04948 13.6354 9 13.5 9ZM9 11.5C9 11.6354 9.04948 11.7526 9.14844 11.8516C9.2474 11.9505 9.36458 12 9.5 12H11.5C11.6354 12 11.7526 11.9505 11.8516 11.8516C11.9505 11.7526 12 11.6354 12 11.5C12 11.3646 11.9505 11.2474 11.8516 11.1484C11.7526 11.0495 11.6354 11 11.5 11H9.5C9.36458 11 9.2474 11.0495 9.14844 11.1484C9.04948 11.2474 9 11.3646 9 11.5ZM13.5 13H9.5C9.36458 13 9.2474 13.0495 9.14844 13.1484C9.04948 13.2474 9 13.3646 9 13.5C9 13.6354 9.04948 13.7526 9.14844 13.8516C9.2474 13.9505 9.36458 14 9.5 14H13.5C13.6354 14 13.7526 13.9505 13.8516 13.8516C13.9505 13.7526 14 13.6354 14 13.5C14 13.3646 13.9505 13.2474 13.8516 13.1484C13.7526 13.0495 13.6354 13 13.5 13ZM9 2V5C9 5.28125 8.90104 5.51823 8.70312 5.71094C8.50521 5.90365 8.26823 6 7.99219 6C7.71615 6 7.48177 5.90365 7.28906 5.71094C7.09635 5.51823 7 5.28125 7 5V2C6.71875 2 6.48177 1.90365 6.28906 1.71094C6.09635 1.51823 6 1.28385 6 1.00781C6 0.731771 6.09635 0.494792 6.28906 0.296875C6.48177 0.0989583 6.71875 0 7 0H9C9.27083 0 9.50521 0.0989583 9.70312 0.296875C9.90104 0.494792 10 0.731771 10 1.00781C10 1.28385 9.90365 1.51823 9.71094 1.71094C9.51823 1.90365 9.28125 2 9 2Z"/>
</svg>
