<svg width="744" height="537" viewBox="0 0 744 537" fill="none" xmlns="http://www.w3.org/2000/svg">
<path d="M214.159 1.77818C144.659 -8.72182 113.159 28.7782 88.1594 74.7782C79.5202 89.7782 15.1594 164.278 1.15938 222.278C-12.8406 280.278 103.659 406.278 150.659 427.278C197.659 448.278 227.159 502.778 351.159 530.778C475.159 558.778 547.659 470.778 547.659 427.278C547.659 383.778 537.159 303.278 564.159 262.278C591.159 221.278 705.659 191.778 734.159 157.278C762.659 122.778 725.659 40.7782 648.159 21.7782C570.659 2.7782 509.159 34.7782 440.659 40.7782C372.159 46.7782 283.659 12.2782 214.159 1.77818Z" fill="#19B2BD"/>
<rect x="64.9998" y="41.0001" width="265" height="369" rx="5" fill="#E0EBEE"/>
<rect x="76.9998" y="81.0001" width="242" height="94" rx="5" fill="white"/>
<circle cx="94.9998" cy="160" r="10" fill="#FF971E"/>
<circle cx="120" cy="160" r="10" fill="#8EFF1E"/>
<circle cx="287" cy="160" r="10" fill="#D2D2D2"/>
<rect x="280" y="161" width="13" height="6" rx="3" fill="white"/>
<circle cx="286.5" cy="156.5" r="3.5" fill="white"/>
<circle cx="300" cy="160" r="10" fill="#D2D2D2"/>
<rect x="293" y="161" width="13" height="6" rx="3" fill="white"/>
<circle cx="299.5" cy="156.5" r="3.5" fill="white"/>
<path d="M96.8578 106.234C94.9378 106.234 93.4378 105.718 92.3578 104.686C91.2778 103.654 90.7378 102.196 90.7378 100.312C90.7378 99.0281 90.9898 97.8941 91.4938 96.9101C92.0098 95.9261 92.7358 95.1701 93.6718 94.6421C94.6078 94.1021 95.6878 93.8321 96.9118 93.8321C97.9078 93.8321 98.8678 94.0121 99.7918 94.3721L99.3058 96.6941C98.4898 96.3221 97.6978 96.1361 96.9298 96.1361C95.8378 96.1361 94.9738 96.4961 94.3378 97.2161C93.7018 97.9241 93.3838 98.8721 93.3838 100.06C93.3838 101.272 93.7198 102.214 94.3918 102.886C95.0638 103.558 95.9938 103.894 97.1818 103.894C97.9618 103.894 98.7178 103.768 99.4498 103.516L99.8458 105.73C98.9698 106.066 97.9738 106.234 96.8578 106.234ZM101.857 92.8601H104.395V98.0801C104.767 97.5281 105.193 97.1261 105.673 96.8741C106.153 96.6101 106.705 96.4781 107.329 96.4781C108.325 96.4781 109.105 96.7781 109.669 97.3781C110.233 97.9661 110.515 98.7881 110.515 99.8441V106H107.977V100.24C107.977 99.7601 107.857 99.3881 107.617 99.1241C107.377 98.8481 107.053 98.7101 106.645 98.7101C106.201 98.7101 105.775 98.8661 105.367 99.1781C104.971 99.4781 104.647 99.8801 104.395 100.384V106H101.857V92.8601ZM117.235 106.27C115.735 106.27 114.553 105.838 113.689 104.974C112.837 104.11 112.411 102.91 112.411 101.374C112.411 100.378 112.597 99.5141 112.969 98.7821C113.341 98.0381 113.863 97.4681 114.535 97.0721C115.219 96.6761 116.017 96.4781 116.929 96.4781C118.273 96.4781 119.305 96.9101 120.025 97.7741C120.745 98.6381 121.105 99.8861 121.105 101.518C121.105 101.794 121.099 101.998 121.087 102.13H114.967C115.087 102.766 115.363 103.252 115.795 103.588C116.227 103.912 116.809 104.074 117.541 104.074C117.985 104.074 118.447 104.02 118.927 103.912C119.407 103.792 119.827 103.636 120.187 103.444L120.601 105.478C120.121 105.73 119.587 105.922 118.999 106.054C118.423 106.198 117.835 106.27 117.235 106.27ZM118.675 100.222C118.639 99.7061 118.459 99.2981 118.135 98.9981C117.811 98.6861 117.379 98.5301 116.839 98.5301C116.323 98.5301 115.897 98.6801 115.561 98.9801C115.237 99.2801 115.033 99.6941 114.949 100.222H118.675ZM127.412 106.27C125.876 106.27 124.682 105.862 123.83 105.046C122.99 104.23 122.57 103.078 122.57 101.59C122.57 100.582 122.768 99.6941 123.164 98.9261C123.56 98.1461 124.118 97.5461 124.838 97.1261C125.558 96.6941 126.392 96.4781 127.34 96.4781C127.784 96.4781 128.246 96.5321 128.726 96.6401C129.218 96.7361 129.596 96.8501 129.86 96.9821L129.374 99.1241C129.098 98.9921 128.792 98.8901 128.456 98.8181C128.132 98.7341 127.826 98.6921 127.538 98.6921C126.794 98.6921 126.194 98.9441 125.738 99.4481C125.294 99.9521 125.072 100.618 125.072 101.446C125.072 102.286 125.3 102.934 125.756 103.39C126.224 103.846 126.884 104.074 127.736 104.074C128.3 104.074 128.906 103.966 129.554 103.75L129.932 105.802C129.152 106.114 128.312 106.27 127.412 106.27ZM134.278 101.968V106H131.74V92.8421H134.278V100.114L137.176 96.7301H140.182L136.474 100.888L140.38 105.892L137.626 106.27L134.278 101.968ZM149.436 106.27C148.5 106.27 147.672 106.066 146.952 105.658C146.244 105.25 145.692 104.68 145.296 103.948C144.9 103.204 144.702 102.346 144.702 101.374C144.702 100.402 144.894 99.5501 145.278 98.8181C145.674 98.0741 146.226 97.4981 146.934 97.0901C147.654 96.6821 148.482 96.4781 149.418 96.4781C150.354 96.4781 151.176 96.6821 151.884 97.0901C152.604 97.4861 153.156 98.0501 153.54 98.7821C153.936 99.5141 154.134 100.36 154.134 101.32C154.134 102.292 153.936 103.156 153.54 103.912C153.156 104.656 152.604 105.238 151.884 105.658C151.176 106.066 150.36 106.27 149.436 106.27ZM149.418 104.074C150.066 104.074 150.582 103.828 150.966 103.336C151.362 102.832 151.56 102.172 151.56 101.356C151.56 100.54 151.362 99.8921 150.966 99.4121C150.582 98.9201 150.066 98.6741 149.418 98.6741C148.77 98.6741 148.248 98.9201 147.852 99.4121C147.468 99.8921 147.276 100.54 147.276 101.356C147.276 102.172 147.468 102.832 147.852 103.336C148.248 103.828 148.77 104.074 149.418 104.074ZM159.181 106.252C158.197 106.252 157.423 105.952 156.859 105.352C156.295 104.752 156.013 103.93 156.013 102.886V96.7301H158.551V102.472C158.551 102.964 158.671 103.348 158.911 103.624C159.151 103.888 159.475 104.02 159.883 104.02C160.291 104.02 160.681 103.888 161.053 103.624C161.437 103.36 161.755 103.006 162.007 102.562V96.7301H164.545V106H162.007V104.776C161.659 105.244 161.257 105.61 160.801 105.874C160.357 106.126 159.817 106.252 159.181 106.252ZM170.281 106.27C169.417 106.27 168.745 106.054 168.265 105.622C167.797 105.178 167.563 104.554 167.563 103.75V98.9081H166.123V96.7301H167.563V94.7501C168.415 94.6061 169.255 94.4981 170.083 94.4261V96.7301H172.423V98.9081H170.083V103.282C170.083 103.534 170.155 103.726 170.299 103.858C170.455 103.99 170.671 104.056 170.947 104.056C171.283 104.056 171.667 103.978 172.099 103.822L172.657 105.73C171.889 106.09 171.097 106.27 170.281 106.27ZM176.971 94.0121H179.743L181.831 102.634L183.973 94.0841L187.339 93.8321L189.607 102.886L191.713 94.0121H194.287L191.047 106H187.897L185.575 96.5141L183.163 106H180.049L176.971 94.0121ZM199.569 106.27C198.633 106.27 197.805 106.066 197.085 105.658C196.377 105.25 195.825 104.68 195.429 103.948C195.033 103.204 194.835 102.346 194.835 101.374C194.835 100.402 195.027 99.5501 195.411 98.8181C195.807 98.0741 196.359 97.4981 197.067 97.0901C197.787 96.6821 198.615 96.4781 199.551 96.4781C200.487 96.4781 201.309 96.6821 202.017 97.0901C202.737 97.4861 203.289 98.0501 203.673 98.7821C204.069 99.5141 204.267 100.36 204.267 101.32C204.267 102.292 204.069 103.156 203.673 103.912C203.289 104.656 202.737 105.238 202.017 105.658C201.309 106.066 200.493 106.27 199.569 106.27ZM199.551 104.074C200.199 104.074 200.715 103.828 201.099 103.336C201.495 102.832 201.693 102.172 201.693 101.356C201.693 100.54 201.495 99.8921 201.099 99.4121C200.715 98.9201 200.199 98.6741 199.551 98.6741C198.903 98.6741 198.381 98.9201 197.985 99.4121C197.601 99.8921 197.409 100.54 197.409 101.356C197.409 102.172 197.601 102.832 197.985 103.336C198.381 103.828 198.903 104.074 199.551 104.074ZM206.202 96.7301H208.74V98.2421H208.884C209.232 97.6301 209.574 97.1801 209.91 96.8921C210.258 96.6041 210.69 96.4601 211.206 96.4601C211.422 96.4601 211.602 96.4841 211.746 96.5321L211.476 99.2681C211.164 99.1841 210.912 99.1421 210.72 99.1421C210.444 99.1421 210.198 99.1961 209.982 99.3041C209.778 99.4121 209.592 99.5561 209.424 99.7361C209.268 99.9161 209.04 100.192 208.74 100.564V106H206.202V96.7301ZM215.876 101.968V106H213.338V92.8421H215.876V100.114L218.774 96.7301H221.78L218.072 100.888L221.978 105.892L219.224 106.27L215.876 101.968ZM222.694 99.5561H229.894L229.714 101.626H222.514L222.694 99.5561ZM232.605 94.0121H239.931V96.2801H235.215V99.0161H239.121V101.266H235.215V106H232.605V94.0121ZM241.4 103.822H243.038V95.0201H241.49V92.8601H245.576V103.822H247.214V106H241.4V103.822ZM252.954 106.27C252.018 106.27 251.19 106.066 250.47 105.658C249.762 105.25 249.21 104.68 248.814 103.948C248.418 103.204 248.22 102.346 248.22 101.374C248.22 100.402 248.412 99.5501 248.796 98.8181C249.192 98.0741 249.744 97.4981 250.452 97.0901C251.172 96.6821 252 96.4781 252.936 96.4781C253.872 96.4781 254.694 96.6821 255.402 97.0901C256.122 97.4861 256.674 98.0501 257.058 98.7821C257.454 99.5141 257.652 100.36 257.652 101.32C257.652 102.292 257.454 103.156 257.058 103.912C256.674 104.656 256.122 105.238 255.402 105.658C254.694 106.066 253.878 106.27 252.954 106.27ZM252.936 104.074C253.584 104.074 254.1 103.828 254.484 103.336C254.88 102.832 255.078 102.172 255.078 101.356C255.078 100.54 254.88 99.8921 254.484 99.4121C254.1 98.9201 253.584 98.6741 252.936 98.6741C252.288 98.6741 251.766 98.9201 251.37 99.4121C250.986 99.8921 250.794 100.54 250.794 101.356C250.794 102.172 250.986 102.832 251.37 103.336C251.766 103.828 252.288 104.074 252.936 104.074ZM258.401 96.7301H260.993L262.649 102.868L264.431 96.7841L267.293 96.5501L269.219 103.048L270.911 96.7301H273.323L270.497 106H267.725L265.817 99.2681L263.819 106H261.101L258.401 96.7301Z" fill="#333333"/>
<rect x="76.9998" y="185" width="242" height="68" rx="5" fill="white"/>
<path d="M96.8578 209.234C94.9378 209.234 93.4378 208.718 92.3578 207.686C91.2778 206.654 90.7378 205.196 90.7378 203.312C90.7378 202.028 90.9898 200.894 91.4938 199.91C92.0098 198.926 92.7358 198.17 93.6718 197.642C94.6078 197.102 95.6878 196.832 96.9118 196.832C97.9078 196.832 98.8678 197.012 99.7918 197.372L99.3058 199.694C98.4898 199.322 97.6978 199.136 96.9298 199.136C95.8378 199.136 94.9738 199.496 94.3378 200.216C93.7018 200.924 93.3838 201.872 93.3838 203.06C93.3838 204.272 93.7198 205.214 94.3918 205.886C95.0638 206.558 95.9938 206.894 97.1818 206.894C97.9618 206.894 98.7178 206.768 99.4498 206.516L99.8458 208.73C98.9698 209.066 97.9738 209.234 96.8578 209.234ZM101.911 199.73H104.449V201.242H104.593C104.941 200.63 105.283 200.18 105.619 199.892C105.967 199.604 106.399 199.46 106.915 199.46C107.131 199.46 107.311 199.484 107.455 199.532L107.185 202.268C106.873 202.184 106.621 202.142 106.429 202.142C106.153 202.142 105.907 202.196 105.691 202.304C105.487 202.412 105.301 202.556 105.133 202.736C104.977 202.916 104.749 203.192 104.449 203.564V209H101.911V199.73ZM113.104 209.27C111.604 209.27 110.422 208.838 109.558 207.974C108.706 207.11 108.28 205.91 108.28 204.374C108.28 203.378 108.466 202.514 108.838 201.782C109.21 201.038 109.732 200.468 110.404 200.072C111.088 199.676 111.886 199.478 112.798 199.478C114.142 199.478 115.174 199.91 115.894 200.774C116.614 201.638 116.974 202.886 116.974 204.518C116.974 204.794 116.968 204.998 116.956 205.13H110.836C110.956 205.766 111.232 206.252 111.664 206.588C112.096 206.912 112.678 207.074 113.41 207.074C113.854 207.074 114.316 207.02 114.796 206.912C115.276 206.792 115.696 206.636 116.056 206.444L116.47 208.478C115.99 208.73 115.456 208.922 114.868 209.054C114.292 209.198 113.704 209.27 113.104 209.27ZM114.544 203.222C114.508 202.706 114.328 202.298 114.004 201.998C113.68 201.686 113.248 201.53 112.708 201.53C112.192 201.53 111.766 201.68 111.43 201.98C111.106 202.28 110.902 202.694 110.818 203.222H114.544ZM121.643 209.27C120.683 209.27 119.921 208.862 119.357 208.046C118.793 207.23 118.511 206.12 118.511 204.716C118.511 203.012 118.943 201.716 119.807 200.828C120.671 199.928 121.913 199.478 123.533 199.478C124.445 199.478 125.513 199.622 126.737 199.91V209H124.325L124.379 207.524H124.307C123.995 208.088 123.611 208.52 123.155 208.82C122.711 209.12 122.207 209.27 121.643 209.27ZM122.183 207.056C122.555 207.056 122.921 206.858 123.281 206.462C123.641 206.066 123.977 205.538 124.289 204.878V201.854C123.905 201.746 123.521 201.692 123.137 201.692C122.417 201.692 121.871 201.938 121.499 202.43C121.139 202.922 120.959 203.648 120.959 204.608C120.959 205.364 121.067 205.964 121.283 206.408C121.499 206.84 121.799 207.056 122.183 207.056ZM132.558 209.27C131.694 209.27 131.022 209.054 130.542 208.622C130.074 208.178 129.84 207.554 129.84 206.75V201.908H128.4V199.73H129.84V197.75C130.692 197.606 131.532 197.498 132.36 197.426V199.73H134.7V201.908H132.36V206.282C132.36 206.534 132.432 206.726 132.576 206.858C132.732 206.99 132.948 207.056 133.224 207.056C133.56 207.056 133.944 206.978 134.376 206.822L134.934 208.73C134.166 209.09 133.374 209.27 132.558 209.27ZM140.667 209.27C139.167 209.27 137.985 208.838 137.121 207.974C136.269 207.11 135.843 205.91 135.843 204.374C135.843 203.378 136.029 202.514 136.401 201.782C136.773 201.038 137.295 200.468 137.967 200.072C138.651 199.676 139.449 199.478 140.361 199.478C141.705 199.478 142.737 199.91 143.457 200.774C144.177 201.638 144.537 202.886 144.537 204.518C144.537 204.794 144.531 204.998 144.519 205.13H138.399C138.519 205.766 138.795 206.252 139.227 206.588C139.659 206.912 140.241 207.074 140.973 207.074C141.417 207.074 141.879 207.02 142.359 206.912C142.839 206.792 143.259 206.636 143.619 206.444L144.033 208.478C143.553 208.73 143.019 208.922 142.431 209.054C141.855 209.198 141.267 209.27 140.667 209.27ZM142.107 203.222C142.071 202.706 141.891 202.298 141.567 201.998C141.243 201.686 140.811 201.53 140.271 201.53C139.755 201.53 139.329 201.68 138.993 201.98C138.669 202.28 138.465 202.694 138.381 203.222H142.107ZM152.721 209.27C151.761 209.27 150.999 208.862 150.435 208.046C149.871 207.23 149.589 206.12 149.589 204.716C149.589 203.012 150.021 201.716 150.885 200.828C151.749 199.928 152.991 199.478 154.611 199.478C155.523 199.478 156.591 199.622 157.815 199.91V209H155.403L155.457 207.524H155.385C155.073 208.088 154.689 208.52 154.233 208.82C153.789 209.12 153.285 209.27 152.721 209.27ZM153.261 207.056C153.633 207.056 153.999 206.858 154.359 206.462C154.719 206.066 155.055 205.538 155.367 204.878V201.854C154.983 201.746 154.599 201.692 154.215 201.692C153.495 201.692 152.949 201.938 152.577 202.43C152.217 202.922 152.037 203.648 152.037 204.608C152.037 205.364 152.145 205.964 152.361 206.408C152.577 206.84 152.877 207.056 153.261 207.056ZM160.269 199.73H162.753V201.332C163.137 200.696 163.581 200.228 164.085 199.928C164.589 199.628 165.177 199.478 165.849 199.478C166.845 199.478 167.625 199.778 168.189 200.378C168.753 200.966 169.035 201.788 169.035 202.844V209H166.497V203.24C166.497 202.76 166.377 202.388 166.137 202.124C165.897 201.848 165.573 201.71 165.165 201.71C164.685 201.71 164.229 201.89 163.797 202.25C163.365 202.61 163.035 203.066 162.807 203.618V209H160.269V199.73ZM177.576 209.27C176.616 209.27 175.854 208.862 175.29 208.046C174.726 207.23 174.444 206.12 174.444 204.716C174.444 203.012 174.876 201.716 175.74 200.828C176.604 199.928 177.846 199.478 179.466 199.478C180.378 199.478 181.446 199.622 182.67 199.91V209H180.258L180.312 207.524H180.24C179.928 208.088 179.544 208.52 179.088 208.82C178.644 209.12 178.14 209.27 177.576 209.27ZM178.116 207.056C178.488 207.056 178.854 206.858 179.214 206.462C179.574 206.066 179.91 205.538 180.222 204.878V201.854C179.838 201.746 179.454 201.692 179.07 201.692C178.35 201.692 177.804 201.938 177.432 202.43C177.072 202.922 176.892 203.648 176.892 204.608C176.892 205.364 177 205.964 177.216 206.408C177.432 206.84 177.732 207.056 178.116 207.056ZM189.322 209.27C187.786 209.27 186.592 208.862 185.74 208.046C184.9 207.23 184.48 206.078 184.48 204.59C184.48 203.582 184.678 202.694 185.074 201.926C185.47 201.146 186.028 200.546 186.748 200.126C187.468 199.694 188.302 199.478 189.25 199.478C189.694 199.478 190.156 199.532 190.636 199.64C191.128 199.736 191.506 199.85 191.77 199.982L191.284 202.124C191.008 201.992 190.702 201.89 190.366 201.818C190.042 201.734 189.736 201.692 189.448 201.692C188.704 201.692 188.104 201.944 187.648 202.448C187.204 202.952 186.982 203.618 186.982 204.446C186.982 205.286 187.21 205.934 187.666 206.39C188.134 206.846 188.794 207.074 189.646 207.074C190.21 207.074 190.816 206.966 191.464 206.75L191.842 208.802C191.062 209.114 190.222 209.27 189.322 209.27ZM197.882 209.27C196.346 209.27 195.152 208.862 194.3 208.046C193.46 207.23 193.04 206.078 193.04 204.59C193.04 203.582 193.238 202.694 193.634 201.926C194.03 201.146 194.588 200.546 195.308 200.126C196.028 199.694 196.862 199.478 197.81 199.478C198.254 199.478 198.716 199.532 199.196 199.64C199.688 199.736 200.066 199.85 200.33 199.982L199.844 202.124C199.568 201.992 199.262 201.89 198.926 201.818C198.602 201.734 198.296 201.692 198.008 201.692C197.264 201.692 196.664 201.944 196.208 202.448C195.764 202.952 195.542 203.618 195.542 204.446C195.542 205.286 195.77 205.934 196.226 206.39C196.694 206.846 197.354 207.074 198.206 207.074C198.77 207.074 199.376 206.966 200.024 206.75L200.402 208.802C199.622 209.114 198.782 209.27 197.882 209.27ZM206.407 209.27C205.471 209.27 204.643 209.066 203.923 208.658C203.215 208.25 202.663 207.68 202.267 206.948C201.871 206.204 201.673 205.346 201.673 204.374C201.673 203.402 201.865 202.55 202.249 201.818C202.645 201.074 203.197 200.498 203.905 200.09C204.625 199.682 205.453 199.478 206.389 199.478C207.325 199.478 208.147 199.682 208.855 200.09C209.575 200.486 210.127 201.05 210.511 201.782C210.907 202.514 211.105 203.36 211.105 204.32C211.105 205.292 210.907 206.156 210.511 206.912C210.127 207.656 209.575 208.238 208.855 208.658C208.147 209.066 207.331 209.27 206.407 209.27ZM206.389 207.074C207.037 207.074 207.553 206.828 207.937 206.336C208.333 205.832 208.531 205.172 208.531 204.356C208.531 203.54 208.333 202.892 207.937 202.412C207.553 201.92 207.037 201.674 206.389 201.674C205.741 201.674 205.219 201.92 204.823 202.412C204.439 202.892 204.247 203.54 204.247 204.356C204.247 205.172 204.439 205.832 204.823 206.336C205.219 206.828 205.741 207.074 206.389 207.074ZM217.358 209.27C216.422 209.27 215.594 209.066 214.874 208.658C214.166 208.25 213.614 207.68 213.218 206.948C212.822 206.204 212.624 205.346 212.624 204.374C212.624 203.402 212.816 202.55 213.2 201.818C213.596 201.074 214.148 200.498 214.856 200.09C215.576 199.682 216.404 199.478 217.34 199.478C218.276 199.478 219.098 199.682 219.806 200.09C220.526 200.486 221.078 201.05 221.462 201.782C221.858 202.514 222.056 203.36 222.056 204.32C222.056 205.292 221.858 206.156 221.462 206.912C221.078 207.656 220.526 208.238 219.806 208.658C219.098 209.066 218.282 209.27 217.358 209.27ZM217.34 207.074C217.988 207.074 218.504 206.828 218.888 206.336C219.284 205.832 219.482 205.172 219.482 204.356C219.482 203.54 219.284 202.892 218.888 202.412C218.504 201.92 217.988 201.674 217.34 201.674C216.692 201.674 216.17 201.92 215.774 202.412C215.39 202.892 215.198 203.54 215.198 204.356C215.198 205.172 215.39 205.832 215.774 206.336C216.17 206.828 216.692 207.074 217.34 207.074ZM227.103 209.252C226.119 209.252 225.345 208.952 224.781 208.352C224.217 207.752 223.935 206.93 223.935 205.886V199.73H226.473V205.472C226.473 205.964 226.593 206.348 226.833 206.624C227.073 206.888 227.397 207.02 227.805 207.02C228.213 207.02 228.603 206.888 228.975 206.624C229.359 206.36 229.677 206.006 229.929 205.562V199.73H232.467V209H229.929V207.776C229.581 208.244 229.179 208.61 228.723 208.874C228.279 209.126 227.739 209.252 227.103 209.252ZM234.801 199.73H237.285V201.332C237.669 200.696 238.113 200.228 238.617 199.928C239.121 199.628 239.709 199.478 240.381 199.478C241.377 199.478 242.157 199.778 242.721 200.378C243.285 200.966 243.567 201.788 243.567 202.844V209H241.029V203.24C241.029 202.76 240.909 202.388 240.669 202.124C240.429 201.848 240.105 201.71 239.697 201.71C239.217 201.71 238.761 201.89 238.329 202.25C237.897 202.61 237.567 203.066 237.339 203.618V209H234.801V199.73ZM249.048 209.27C248.184 209.27 247.512 209.054 247.032 208.622C246.564 208.178 246.33 207.554 246.33 206.75V201.908H244.89V199.73H246.33V197.75C247.182 197.606 248.022 197.498 248.85 197.426V199.73H251.19V201.908H248.85V206.282C248.85 206.534 248.922 206.726 249.066 206.858C249.222 206.99 249.438 207.056 249.714 207.056C250.05 207.056 250.434 206.978 250.866 206.822L251.424 208.73C250.656 209.09 249.864 209.27 249.048 209.27Z" fill="#333333"/>
<circle cx="95.9998" cy="235" r="10" fill="#FF3939"/>
<circle cx="301" cy="235" r="10" fill="#D2D2D2"/>
<rect x="294" y="236" width="13" height="6" rx="3" fill="white"/>
<circle cx="300.5" cy="231.5" r="3.5" fill="white"/>
<rect x="76.9998" y="268" width="242" height="125" rx="5" fill="white"/>
<path d="M96.8578 304.234C94.9378 304.234 93.4378 303.718 92.3578 302.686C91.2778 301.654 90.7378 300.196 90.7378 298.312C90.7378 297.028 90.9898 295.894 91.4938 294.91C92.0098 293.926 92.7358 293.17 93.6718 292.642C94.6078 292.102 95.6878 291.832 96.9118 291.832C97.9078 291.832 98.8678 292.012 99.7918 292.372L99.3058 294.694C98.4898 294.322 97.6978 294.136 96.9298 294.136C95.8378 294.136 94.9738 294.496 94.3378 295.216C93.7018 295.924 93.3838 296.872 93.3838 298.06C93.3838 299.272 93.7198 300.214 94.3918 300.886C95.0638 301.558 95.9938 301.894 97.1818 301.894C97.9618 301.894 98.7178 301.768 99.4498 301.516L99.8458 303.73C98.9698 304.066 97.9738 304.234 96.8578 304.234ZM101.911 294.73H104.449V296.242H104.593C104.941 295.63 105.283 295.18 105.619 294.892C105.967 294.604 106.399 294.46 106.915 294.46C107.131 294.46 107.311 294.484 107.455 294.532L107.185 297.268C106.873 297.184 106.621 297.142 106.429 297.142C106.153 297.142 105.907 297.196 105.691 297.304C105.487 297.412 105.301 297.556 105.133 297.736C104.977 297.916 104.749 298.192 104.449 298.564V304H101.911V294.73ZM113.104 304.27C111.604 304.27 110.422 303.838 109.558 302.974C108.706 302.11 108.28 300.91 108.28 299.374C108.28 298.378 108.466 297.514 108.838 296.782C109.21 296.038 109.732 295.468 110.404 295.072C111.088 294.676 111.886 294.478 112.798 294.478C114.142 294.478 115.174 294.91 115.894 295.774C116.614 296.638 116.974 297.886 116.974 299.518C116.974 299.794 116.968 299.998 116.956 300.13H110.836C110.956 300.766 111.232 301.252 111.664 301.588C112.096 301.912 112.678 302.074 113.41 302.074C113.854 302.074 114.316 302.02 114.796 301.912C115.276 301.792 115.696 301.636 116.056 301.444L116.47 303.478C115.99 303.73 115.456 303.922 114.868 304.054C114.292 304.198 113.704 304.27 113.104 304.27ZM114.544 298.222C114.508 297.706 114.328 297.298 114.004 296.998C113.68 296.686 113.248 296.53 112.708 296.53C112.192 296.53 111.766 296.68 111.43 296.98C111.106 297.28 110.902 297.694 110.818 298.222H114.544ZM121.643 304.27C120.683 304.27 119.921 303.862 119.357 303.046C118.793 302.23 118.511 301.12 118.511 299.716C118.511 298.012 118.943 296.716 119.807 295.828C120.671 294.928 121.913 294.478 123.533 294.478C124.445 294.478 125.513 294.622 126.737 294.91V304H124.325L124.379 302.524H124.307C123.995 303.088 123.611 303.52 123.155 303.82C122.711 304.12 122.207 304.27 121.643 304.27ZM122.183 302.056C122.555 302.056 122.921 301.858 123.281 301.462C123.641 301.066 123.977 300.538 124.289 299.878V296.854C123.905 296.746 123.521 296.692 123.137 296.692C122.417 296.692 121.871 296.938 121.499 297.43C121.139 297.922 120.959 298.648 120.959 299.608C120.959 300.364 121.067 300.964 121.283 301.408C121.499 301.84 121.799 302.056 122.183 302.056ZM132.558 304.27C131.694 304.27 131.022 304.054 130.542 303.622C130.074 303.178 129.84 302.554 129.84 301.75V296.908H128.4V294.73H129.84V292.75C130.692 292.606 131.532 292.498 132.36 292.426V294.73H134.7V296.908H132.36V301.282C132.36 301.534 132.432 301.726 132.576 301.858C132.732 301.99 132.948 302.056 133.224 302.056C133.56 302.056 133.944 301.978 134.376 301.822L134.934 303.73C134.166 304.09 133.374 304.27 132.558 304.27ZM140.667 304.27C139.167 304.27 137.985 303.838 137.121 302.974C136.269 302.11 135.843 300.91 135.843 299.374C135.843 298.378 136.029 297.514 136.401 296.782C136.773 296.038 137.295 295.468 137.967 295.072C138.651 294.676 139.449 294.478 140.361 294.478C141.705 294.478 142.737 294.91 143.457 295.774C144.177 296.638 144.537 297.886 144.537 299.518C144.537 299.794 144.531 299.998 144.519 300.13H138.399C138.519 300.766 138.795 301.252 139.227 301.588C139.659 301.912 140.241 302.074 140.973 302.074C141.417 302.074 141.879 302.02 142.359 301.912C142.839 301.792 143.259 301.636 143.619 301.444L144.033 303.478C143.553 303.73 143.019 303.922 142.431 304.054C141.855 304.198 141.267 304.27 140.667 304.27ZM142.107 298.222C142.071 297.706 141.891 297.298 141.567 296.998C141.243 296.686 140.811 296.53 140.271 296.53C139.755 296.53 139.329 296.68 138.993 296.98C138.669 297.28 138.465 297.694 138.381 298.222H142.107ZM152.721 304.27C151.761 304.27 150.999 303.862 150.435 303.046C149.871 302.23 149.589 301.12 149.589 299.716C149.589 298.012 150.021 296.716 150.885 295.828C151.749 294.928 152.991 294.478 154.611 294.478C155.523 294.478 156.591 294.622 157.815 294.91V304H155.403L155.457 302.524H155.385C155.073 303.088 154.689 303.52 154.233 303.82C153.789 304.12 153.285 304.27 152.721 304.27ZM153.261 302.056C153.633 302.056 153.999 301.858 154.359 301.462C154.719 301.066 155.055 300.538 155.367 299.878V296.854C154.983 296.746 154.599 296.692 154.215 296.692C153.495 296.692 152.949 296.938 152.577 297.43C152.217 297.922 152.037 298.648 152.037 299.608C152.037 300.364 152.145 300.964 152.361 301.408C152.577 301.84 152.877 302.056 153.261 302.056ZM160.269 294.73H162.753V296.17C163.485 295.042 164.475 294.478 165.723 294.478C166.431 294.478 167.031 294.646 167.523 294.982C168.027 295.306 168.393 295.774 168.621 296.386C169.041 295.726 169.509 295.246 170.025 294.946C170.553 294.634 171.153 294.478 171.825 294.478C172.821 294.478 173.595 294.778 174.147 295.378C174.711 295.966 174.993 296.788 174.993 297.844V304H172.455V298.24C172.455 297.76 172.335 297.388 172.095 297.124C171.867 296.848 171.555 296.71 171.159 296.71C170.667 296.71 170.211 296.914 169.791 297.322C169.371 297.73 169.059 298.252 168.855 298.888V304H166.317V298.24C166.317 297.772 166.197 297.4 165.957 297.124C165.717 296.848 165.399 296.71 165.003 296.71C164.559 296.71 164.139 296.878 163.743 297.214C163.359 297.538 163.047 298 162.807 298.6V304H160.269V294.73ZM180.02 304.27C179.06 304.27 178.298 303.862 177.734 303.046C177.17 302.23 176.888 301.12 176.888 299.716C176.888 298.012 177.32 296.716 178.184 295.828C179.048 294.928 180.29 294.478 181.91 294.478C182.822 294.478 183.89 294.622 185.114 294.91V304H182.702L182.756 302.524H182.684C182.372 303.088 181.988 303.52 181.532 303.82C181.088 304.12 180.584 304.27 180.02 304.27ZM180.56 302.056C180.932 302.056 181.298 301.858 181.658 301.462C182.018 301.066 182.354 300.538 182.666 299.878V296.854C182.282 296.746 181.898 296.692 181.514 296.692C180.794 296.692 180.248 296.938 179.876 297.43C179.516 297.922 179.336 298.648 179.336 299.608C179.336 300.364 179.444 300.964 179.66 301.408C179.876 301.84 180.176 302.056 180.56 302.056ZM186.871 302.326L191.317 296.908H187.177V294.73H194.413V296.386L189.985 301.822H194.413V303.982H186.871V302.326ZM197.49 290.86H200.388V293.2H197.49V290.86ZM196.086 301.822H197.814V296.908H196.086V294.73H200.352V301.822H201.9V304H196.086V301.822ZM203.582 294.73H206.066V296.332C206.45 295.696 206.894 295.228 207.398 294.928C207.902 294.628 208.49 294.478 209.162 294.478C210.158 294.478 210.938 294.778 211.502 295.378C212.066 295.966 212.348 296.788 212.348 297.844V304H209.81V298.24C209.81 297.76 209.69 297.388 209.45 297.124C209.21 296.848 208.886 296.71 208.478 296.71C207.998 296.71 207.542 296.89 207.11 297.25C206.678 297.61 206.348 298.066 206.12 298.618V304H203.582V294.73ZM217.609 308.086C216.541 308.086 215.497 307.948 214.477 307.672L214.963 305.44C216.115 305.776 217.075 305.944 217.843 305.944C218.455 305.944 218.923 305.848 219.247 305.656C219.583 305.464 219.817 305.164 219.949 304.756C220.093 304.348 220.177 303.79 220.201 303.082H220.147C219.811 303.466 219.421 303.76 218.977 303.964C218.533 304.168 218.047 304.27 217.519 304.27C216.463 304.27 215.635 303.874 215.035 303.082C214.447 302.278 214.153 301.168 214.153 299.752C214.153 298.036 214.591 296.728 215.467 295.828C216.355 294.928 217.621 294.478 219.265 294.478C220.213 294.478 221.341 294.622 222.649 294.91C222.673 297.382 222.685 299.242 222.685 300.49C222.685 301.606 222.679 302.446 222.667 303.01C222.643 304.714 222.211 305.986 221.371 306.826C220.543 307.666 219.289 308.086 217.609 308.086ZM218.185 302.056C218.557 302.056 218.911 301.918 219.247 301.642C219.595 301.366 219.901 300.976 220.165 300.472L220.147 296.854C219.751 296.746 219.367 296.692 218.995 296.692C218.239 296.692 217.663 296.938 217.267 297.43C216.883 297.922 216.691 298.636 216.691 299.572C216.691 300.352 216.817 300.964 217.069 301.408C217.333 301.84 217.705 302.056 218.185 302.056ZM228.596 294.73H231.062L231.008 295.936H231.08C231.392 295.456 231.77 295.09 232.214 294.838C232.67 294.586 233.186 294.46 233.762 294.46C234.806 294.46 235.622 294.862 236.21 295.666C236.81 296.458 237.11 297.568 237.11 298.996C237.11 300.688 236.666 301.99 235.778 302.902C234.902 303.802 233.648 304.252 232.016 304.252C231.812 304.252 231.506 304.24 231.098 304.216V307.924H228.596V294.73ZM232.268 302.038C233.024 302.038 233.594 301.792 233.978 301.3C234.374 300.808 234.572 300.088 234.572 299.14C234.572 298.372 234.446 297.772 234.194 297.34C233.954 296.896 233.618 296.674 233.186 296.674C232.802 296.674 232.43 296.842 232.07 297.178C231.71 297.502 231.386 297.97 231.098 298.582V301.876C231.506 301.984 231.896 302.038 232.268 302.038ZM239.038 294.73H241.576V296.242H241.72C242.068 295.63 242.41 295.18 242.746 294.892C243.094 294.604 243.526 294.46 244.042 294.46C244.258 294.46 244.438 294.484 244.582 294.532L244.312 297.268C244 297.184 243.748 297.142 243.556 297.142C243.28 297.142 243.034 297.196 242.818 297.304C242.614 297.412 242.428 297.556 242.26 297.736C242.104 297.916 241.876 298.192 241.576 298.564V304H239.038V294.73ZM250.141 304.27C249.205 304.27 248.377 304.066 247.657 303.658C246.949 303.25 246.397 302.68 246.001 301.948C245.605 301.204 245.407 300.346 245.407 299.374C245.407 298.402 245.599 297.55 245.983 296.818C246.379 296.074 246.931 295.498 247.639 295.09C248.359 294.682 249.187 294.478 250.123 294.478C251.059 294.478 251.881 294.682 252.589 295.09C253.309 295.486 253.861 296.05 254.245 296.782C254.641 297.514 254.839 298.36 254.839 299.32C254.839 300.292 254.641 301.156 254.245 301.912C253.861 302.656 253.309 303.238 252.589 303.658C251.881 304.066 251.065 304.27 250.141 304.27ZM250.123 302.074C250.771 302.074 251.287 301.828 251.671 301.336C252.067 300.832 252.265 300.172 252.265 299.356C252.265 298.54 252.067 297.892 251.671 297.412C251.287 296.92 250.771 296.674 250.123 296.674C249.475 296.674 248.953 296.92 248.557 297.412C248.173 297.892 247.981 298.54 247.981 299.356C247.981 300.172 248.173 300.832 248.557 301.336C248.953 301.828 249.475 302.074 250.123 302.074ZM256.798 290.86H259.696V293.2H256.798V290.86ZM256.366 308.194C255.754 308.194 255.154 308.074 254.566 307.834L255.232 305.728C255.52 305.86 255.796 305.926 256.06 305.926C256.372 305.926 256.6 305.836 256.744 305.656C256.9 305.476 256.978 305.194 256.978 304.81V294.73H259.516V305.008C259.516 305.992 259.228 306.766 258.652 307.33C258.088 307.906 257.326 308.194 256.366 308.194ZM266.333 304.27C264.833 304.27 263.651 303.838 262.787 302.974C261.935 302.11 261.509 300.91 261.509 299.374C261.509 298.378 261.695 297.514 262.067 296.782C262.439 296.038 262.961 295.468 263.633 295.072C264.317 294.676 265.115 294.478 266.027 294.478C267.371 294.478 268.403 294.91 269.123 295.774C269.843 296.638 270.203 297.886 270.203 299.518C270.203 299.794 270.197 299.998 270.185 300.13H264.065C264.185 300.766 264.461 301.252 264.893 301.588C265.325 301.912 265.907 302.074 266.639 302.074C267.083 302.074 267.545 302.02 268.025 301.912C268.505 301.792 268.925 301.636 269.285 301.444L269.699 303.478C269.219 303.73 268.685 303.922 268.097 304.054C267.521 304.198 266.933 304.27 266.333 304.27ZM267.773 298.222C267.737 297.706 267.557 297.298 267.233 296.998C266.909 296.686 266.477 296.53 265.937 296.53C265.421 296.53 264.995 296.68 264.659 296.98C264.335 297.28 264.131 297.694 264.047 298.222H267.773ZM276.509 304.27C274.973 304.27 273.779 303.862 272.927 303.046C272.087 302.23 271.667 301.078 271.667 299.59C271.667 298.582 271.865 297.694 272.261 296.926C272.657 296.146 273.215 295.546 273.935 295.126C274.655 294.694 275.489 294.478 276.437 294.478C276.881 294.478 277.343 294.532 277.823 294.64C278.315 294.736 278.693 294.85 278.957 294.982L278.471 297.124C278.195 296.992 277.889 296.89 277.553 296.818C277.229 296.734 276.923 296.692 276.635 296.692C275.891 296.692 275.291 296.944 274.835 297.448C274.391 297.952 274.169 298.618 274.169 299.446C274.169 300.286 274.397 300.934 274.853 301.39C275.321 301.846 275.981 302.074 276.833 302.074C277.397 302.074 278.003 301.966 278.651 301.75L279.029 303.802C278.249 304.114 277.409 304.27 276.509 304.27ZM284.486 304.27C283.622 304.27 282.95 304.054 282.47 303.622C282.002 303.178 281.768 302.554 281.768 301.75V296.908H280.328V294.73H281.768V292.75C282.62 292.606 283.46 292.498 284.288 292.426V294.73H286.628V296.908H284.288V301.282C284.288 301.534 284.36 301.726 284.504 301.858C284.66 301.99 284.876 302.056 285.152 302.056C285.488 302.056 285.872 301.978 286.304 301.822L286.862 303.73C286.094 304.09 285.302 304.27 284.486 304.27ZM291.342 304.27C290.754 304.27 290.184 304.21 289.632 304.09C289.092 303.97 288.63 303.808 288.246 303.604L288.48 301.444C288.888 301.696 289.338 301.9 289.83 302.056C290.322 302.212 290.784 302.29 291.216 302.29C291.624 302.29 291.966 302.218 292.242 302.074C292.518 301.918 292.656 301.696 292.656 301.408C292.656 301.18 292.56 301.006 292.368 300.886C292.176 300.754 291.81 300.592 291.27 300.4L290.784 300.22C290.268 300.028 289.848 299.848 289.524 299.68C289.2 299.5 288.906 299.23 288.642 298.87C288.378 298.51 288.246 298.036 288.246 297.448C288.246 296.512 288.594 295.786 289.29 295.27C289.998 294.742 290.916 294.478 292.044 294.478C292.932 294.478 293.868 294.652 294.852 295L294.51 297.142C294.162 296.938 293.766 296.776 293.322 296.656C292.89 296.524 292.482 296.458 292.098 296.458C291.702 296.458 291.384 296.524 291.144 296.656C290.916 296.788 290.802 296.98 290.802 297.232C290.802 297.472 290.898 297.652 291.09 297.772C291.282 297.892 291.606 298.03 292.062 298.186C292.422 298.318 292.632 298.396 292.692 298.42C293.196 298.624 293.616 298.822 293.952 299.014C294.288 299.206 294.582 299.494 294.834 299.878C295.086 300.25 295.212 300.73 295.212 301.318C295.212 302.302 294.858 303.04 294.15 303.532C293.442 304.024 292.506 304.27 291.342 304.27ZM90.1258 320.73H92.7178L94.3738 326.868L96.1558 320.784L99.0178 320.55L100.944 327.048L102.636 320.73H105.048L102.222 330H99.4498L97.5418 323.268L95.5438 330H92.8258L90.1258 320.73ZM107.631 316.86H110.529V319.2H107.631V316.86ZM106.227 327.822H107.955V322.908H106.227V320.73H110.493V327.822H112.041V330H106.227V327.822ZM116.861 330.27C115.997 330.27 115.325 330.054 114.845 329.622C114.377 329.178 114.143 328.554 114.143 327.75V322.908H112.703V320.73H114.143V318.75C114.995 318.606 115.835 318.498 116.663 318.426V320.73H119.003V322.908H116.663V327.282C116.663 327.534 116.735 327.726 116.879 327.858C117.035 327.99 117.251 328.056 117.527 328.056C117.863 328.056 118.247 327.978 118.679 327.822L119.237 329.73C118.469 330.09 117.677 330.27 116.861 330.27ZM121.035 316.86H123.573V322.08C123.945 321.528 124.371 321.126 124.851 320.874C125.331 320.61 125.883 320.478 126.507 320.478C127.503 320.478 128.283 320.778 128.847 321.378C129.411 321.966 129.693 322.788 129.693 323.844V330H127.155V324.24C127.155 323.76 127.035 323.388 126.795 323.124C126.555 322.848 126.231 322.71 125.823 322.71C125.379 322.71 124.953 322.866 124.545 323.178C124.149 323.478 123.825 323.88 123.573 324.384V330H121.035V316.86ZM136.869 334.032C136.317 334.032 135.741 333.9 135.141 333.636L135.519 331.548C135.975 331.776 136.359 331.89 136.671 331.89C137.043 331.89 137.319 331.77 137.499 331.53C137.691 331.29 137.895 330.87 138.111 330.27L134.493 320.766L137.121 320.55L139.335 327.192L141.387 320.73H143.889C143.121 323.058 142.311 325.35 141.459 327.606C140.619 329.862 139.965 331.41 139.497 332.25C139.161 332.85 138.783 333.294 138.363 333.582C137.955 333.882 137.457 334.032 136.869 334.032ZM149.331 330.27C148.395 330.27 147.567 330.066 146.847 329.658C146.139 329.25 145.587 328.68 145.191 327.948C144.795 327.204 144.597 326.346 144.597 325.374C144.597 324.402 144.789 323.55 145.173 322.818C145.569 322.074 146.121 321.498 146.829 321.09C147.549 320.682 148.377 320.478 149.313 320.478C150.249 320.478 151.071 320.682 151.779 321.09C152.499 321.486 153.051 322.05 153.435 322.782C153.831 323.514 154.029 324.36 154.029 325.32C154.029 326.292 153.831 327.156 153.435 327.912C153.051 328.656 152.499 329.238 151.779 329.658C151.071 330.066 150.255 330.27 149.331 330.27ZM149.313 328.074C149.961 328.074 150.477 327.828 150.861 327.336C151.257 326.832 151.455 326.172 151.455 325.356C151.455 324.54 151.257 323.892 150.861 323.412C150.477 322.92 149.961 322.674 149.313 322.674C148.665 322.674 148.143 322.92 147.747 323.412C147.363 323.892 147.171 324.54 147.171 325.356C147.171 326.172 147.363 326.832 147.747 327.336C148.143 327.828 148.665 328.074 149.313 328.074ZM159.076 330.252C158.092 330.252 157.318 329.952 156.754 329.352C156.19 328.752 155.908 327.93 155.908 326.886V320.73H158.446V326.472C158.446 326.964 158.566 327.348 158.806 327.624C159.046 327.888 159.37 328.02 159.778 328.02C160.186 328.02 160.576 327.888 160.948 327.624C161.332 327.36 161.65 327.006 161.902 326.562V320.73H164.44V330H161.902V328.776C161.554 329.244 161.152 329.61 160.696 329.874C160.252 330.126 159.712 330.252 159.076 330.252ZM166.827 320.73H169.365V322.242H169.509C169.857 321.63 170.199 321.18 170.535 320.892C170.883 320.604 171.315 320.46 171.831 320.46C172.047 320.46 172.227 320.484 172.371 320.532L172.101 323.268C171.789 323.184 171.537 323.142 171.345 323.142C171.069 323.142 170.823 323.196 170.607 323.304C170.403 323.412 170.217 323.556 170.049 323.736C169.893 323.916 169.665 324.192 169.365 324.564V330H166.827V320.73ZM180.968 330.27C180.104 330.27 179.432 330.054 178.952 329.622C178.484 329.178 178.25 328.554 178.25 327.75V322.908H176.81V320.73H178.25V318.75C179.102 318.606 179.942 318.498 180.77 318.426V320.73H183.11V322.908H180.77V327.282C180.77 327.534 180.842 327.726 180.986 327.858C181.142 327.99 181.358 328.056 181.634 328.056C181.97 328.056 182.354 327.978 182.786 327.822L183.344 329.73C182.576 330.09 181.784 330.27 180.968 330.27ZM189.077 330.27C187.577 330.27 186.395 329.838 185.531 328.974C184.679 328.11 184.253 326.91 184.253 325.374C184.253 324.378 184.439 323.514 184.811 322.782C185.183 322.038 185.705 321.468 186.377 321.072C187.061 320.676 187.859 320.478 188.771 320.478C190.115 320.478 191.147 320.91 191.867 321.774C192.587 322.638 192.947 323.886 192.947 325.518C192.947 325.794 192.941 325.998 192.929 326.13H186.809C186.929 326.766 187.205 327.252 187.637 327.588C188.069 327.912 188.651 328.074 189.383 328.074C189.827 328.074 190.289 328.02 190.769 327.912C191.249 327.792 191.669 327.636 192.029 327.444L192.443 329.478C191.963 329.73 191.429 329.922 190.841 330.054C190.265 330.198 189.677 330.27 189.077 330.27ZM190.517 324.222C190.481 323.706 190.301 323.298 189.977 322.998C189.653 322.686 189.221 322.53 188.681 322.53C188.165 322.53 187.739 322.68 187.403 322.98C187.079 323.28 186.875 323.694 186.791 324.222H190.517ZM197.615 330.27C196.655 330.27 195.893 329.862 195.329 329.046C194.765 328.23 194.483 327.12 194.483 325.716C194.483 324.012 194.915 322.716 195.779 321.828C196.643 320.928 197.885 320.478 199.505 320.478C200.417 320.478 201.485 320.622 202.709 320.91V330H200.297L200.351 328.524H200.279C199.967 329.088 199.583 329.52 199.127 329.82C198.683 330.12 198.179 330.27 197.615 330.27ZM198.155 328.056C198.527 328.056 198.893 327.858 199.253 327.462C199.613 327.066 199.949 326.538 200.261 325.878V322.854C199.877 322.746 199.493 322.692 199.109 322.692C198.389 322.692 197.843 322.938 197.471 323.43C197.111 323.922 196.931 324.648 196.931 325.608C196.931 326.364 197.039 326.964 197.255 327.408C197.471 327.84 197.771 328.056 198.155 328.056ZM205.164 320.73H207.648V322.17C208.38 321.042 209.37 320.478 210.618 320.478C211.326 320.478 211.926 320.646 212.418 320.982C212.922 321.306 213.288 321.774 213.516 322.386C213.936 321.726 214.404 321.246 214.92 320.946C215.448 320.634 216.048 320.478 216.72 320.478C217.716 320.478 218.49 320.778 219.042 321.378C219.606 321.966 219.888 322.788 219.888 323.844V330H217.35V324.24C217.35 323.76 217.23 323.388 216.99 323.124C216.762 322.848 216.45 322.71 216.054 322.71C215.562 322.71 215.106 322.914 214.686 323.322C214.266 323.73 213.954 324.252 213.75 324.888V330H211.212V324.24C211.212 323.772 211.092 323.4 210.852 323.124C210.612 322.848 210.294 322.71 209.898 322.71C209.454 322.71 209.034 322.878 208.638 323.214C208.254 323.538 207.942 324 207.702 324.6V330H205.164V320.73Z" fill="#333333"/>
<path d="M85.8158 56.2801H82.5398V54.0121H91.6838V56.2801H88.4438V66.0001H85.8158V56.2801ZM96.2428 66.2701C95.3068 66.2701 94.4788 66.0661 93.7588 65.6581C93.0508 65.2501 92.4988 64.6801 92.1028 63.9481C91.7068 63.2041 91.5088 62.3461 91.5088 61.3741C91.5088 60.4021 91.7008 59.5501 92.0848 58.8181C92.4808 58.0741 93.0328 57.4981 93.7408 57.0901C94.4608 56.6821 95.2888 56.4781 96.2248 56.4781C97.1608 56.4781 97.9828 56.6821 98.6908 57.0901C99.4108 57.4861 99.9628 58.0501 100.347 58.7821C100.743 59.5141 100.941 60.3601 100.941 61.3201C100.941 62.2921 100.743 63.1561 100.347 63.9121C99.9628 64.6561 99.4108 65.2381 98.6908 65.6581C97.9828 66.0661 97.1668 66.2701 96.2428 66.2701ZM96.2248 64.0741C96.8728 64.0741 97.3888 63.8281 97.7728 63.3361C98.1688 62.8321 98.3668 62.1721 98.3668 61.3561C98.3668 60.5401 98.1688 59.8921 97.7728 59.4121C97.3888 58.9201 96.8728 58.6741 96.2248 58.6741C95.5768 58.6741 95.0548 58.9201 94.6588 59.4121C94.2748 59.8921 94.0828 60.5401 94.0828 61.3561C94.0828 62.1721 94.2748 62.8321 94.6588 63.3361C95.0548 63.8281 95.5768 64.0741 96.2248 64.0741ZM103.406 59.5561H110.606L110.426 61.6261H103.226L103.406 59.5561ZM115.208 66.0181C114.356 66.0181 113.72 66.0121 113.3 66.0001V54.0121C113.816 54.0001 114.578 53.9941 115.586 53.9941C116.606 53.9941 117.368 54.0001 117.872 54.0121C119.048 54.0241 120.068 54.2641 120.932 54.7321C121.808 55.1881 122.48 55.8421 122.948 56.6941C123.428 57.5461 123.668 58.5421 123.668 59.6821C123.668 60.9301 123.392 62.0281 122.84 62.9761C122.3 63.9241 121.532 64.6621 120.536 65.1901C119.552 65.7181 118.406 65.9881 117.098 66.0001C116.678 66.0121 116.048 66.0181 115.208 66.0181ZM117.08 63.7321C118.292 63.7321 119.246 63.3781 119.942 62.6701C120.638 61.9621 120.986 60.9901 120.986 59.7541C120.986 58.6381 120.686 57.7801 120.086 57.1801C119.498 56.5801 118.646 56.2801 117.53 56.2801H115.91V63.7321H117.08ZM129.975 66.2701C129.039 66.2701 128.211 66.0661 127.491 65.6581C126.783 65.2501 126.231 64.6801 125.835 63.9481C125.439 63.2041 125.241 62.3461 125.241 61.3741C125.241 60.4021 125.433 59.5501 125.817 58.8181C126.213 58.0741 126.765 57.4981 127.473 57.0901C128.193 56.6821 129.021 56.4781 129.957 56.4781C130.893 56.4781 131.715 56.6821 132.423 57.0901C133.143 57.4861 133.695 58.0501 134.079 58.7821C134.475 59.5141 134.673 60.3601 134.673 61.3201C134.673 62.2921 134.475 63.1561 134.079 63.9121C133.695 64.6561 133.143 65.2381 132.423 65.6581C131.715 66.0661 130.899 66.2701 129.975 66.2701ZM129.957 64.0741C130.605 64.0741 131.121 63.8281 131.505 63.3361C131.901 62.8321 132.099 62.1721 132.099 61.3561C132.099 60.5401 131.901 59.8921 131.505 59.4121C131.121 58.9201 130.605 58.6741 129.957 58.6741C129.309 58.6741 128.787 58.9201 128.391 59.4121C128.007 59.8921 127.815 60.5401 127.815 61.3561C127.815 62.1721 128.007 62.8321 128.391 63.3361C128.787 63.8281 129.309 64.0741 129.957 64.0741Z" fill="#2F4449"/>
<rect x="294" y="50.0001" width="22" height="22" rx="5" fill="#B9CFD6"/>
<rect x="307" y="68.0001" width="4" height="15" rx="1" transform="rotate(-180 307 68.0001)" fill="#6E97A5"/>
<rect x="307" y="68.0001" width="4" height="15" rx="1" transform="rotate(-180 307 68.0001)" fill="#6E97A5"/>
<rect x="297" y="63.0001" width="4" height="15" rx="1" transform="rotate(-90 297 63.0001)" fill="#6E97A5"/>
<rect x="297" y="63.0001" width="4" height="15" rx="1" transform="rotate(-90 297 63.0001)" fill="#6E97A5"/>
<rect x="355" y="41.0001" width="265" height="369" rx="5" fill="#E0EBEE"/>
<rect x="367" y="86.0001" width="242" height="68" rx="5" fill="white"/>
<path d="M381.26 98.0121H383.888V102.656H388.982V98.0121H391.628V110H388.982V104.888H383.888V110H381.26V98.0121ZM396.737 110.27C395.777 110.27 395.015 109.862 394.451 109.046C393.887 108.23 393.605 107.12 393.605 105.716C393.605 104.012 394.037 102.716 394.901 101.828C395.765 100.928 397.007 100.478 398.627 100.478C399.539 100.478 400.607 100.622 401.831 100.91V110H399.419L399.473 108.524H399.401C399.089 109.088 398.705 109.52 398.249 109.82C397.805 110.12 397.301 110.27 396.737 110.27ZM397.277 108.056C397.649 108.056 398.015 107.858 398.375 107.462C398.735 107.066 399.071 106.538 399.383 105.878V102.854C398.999 102.746 398.615 102.692 398.231 102.692C397.511 102.692 396.965 102.938 396.593 103.43C396.233 103.922 396.053 104.648 396.053 105.608C396.053 106.364 396.161 106.964 396.377 107.408C396.593 107.84 396.893 108.056 397.277 108.056ZM403.205 100.766L405.977 100.514L408.029 107.192L409.991 100.73H412.709L409.451 110H406.481L403.205 100.766ZM418.239 110.27C416.739 110.27 415.557 109.838 414.693 108.974C413.841 108.11 413.415 106.91 413.415 105.374C413.415 104.378 413.601 103.514 413.973 102.782C414.345 102.038 414.867 101.468 415.539 101.072C416.223 100.676 417.021 100.478 417.933 100.478C419.277 100.478 420.309 100.91 421.029 101.774C421.749 102.638 422.109 103.886 422.109 105.518C422.109 105.794 422.103 105.998 422.091 106.13H415.971C416.091 106.766 416.367 107.252 416.799 107.588C417.231 107.912 417.813 108.074 418.545 108.074C418.989 108.074 419.451 108.02 419.931 107.912C420.411 107.792 420.831 107.636 421.191 107.444L421.605 109.478C421.125 109.73 420.591 109.922 420.003 110.054C419.427 110.198 418.839 110.27 418.239 110.27ZM419.679 104.222C419.643 103.706 419.463 103.298 419.139 102.998C418.815 102.686 418.383 102.53 417.843 102.53C417.327 102.53 416.901 102.68 416.565 102.98C416.241 103.28 416.037 103.694 415.953 104.222H419.679ZM430.293 110.27C429.333 110.27 428.571 109.862 428.007 109.046C427.443 108.23 427.161 107.12 427.161 105.716C427.161 104.012 427.593 102.716 428.457 101.828C429.321 100.928 430.563 100.478 432.183 100.478C433.095 100.478 434.163 100.622 435.387 100.91V110H432.975L433.029 108.524H432.957C432.645 109.088 432.261 109.52 431.805 109.82C431.361 110.12 430.857 110.27 430.293 110.27ZM430.833 108.056C431.205 108.056 431.571 107.858 431.931 107.462C432.291 107.066 432.627 106.538 432.939 105.878V102.854C432.555 102.746 432.171 102.692 431.787 102.692C431.067 102.692 430.521 102.938 430.149 103.43C429.789 103.922 429.609 104.648 429.609 105.608C429.609 106.364 429.717 106.964 429.933 107.408C430.149 107.84 430.449 108.056 430.833 108.056ZM441.234 100.73H443.718V102.332C444.102 101.696 444.546 101.228 445.05 100.928C445.554 100.628 446.142 100.478 446.814 100.478C447.81 100.478 448.59 100.778 449.154 101.378C449.718 101.966 450 102.788 450 103.844V110H447.462V104.24C447.462 103.76 447.342 103.388 447.102 103.124C446.862 102.848 446.538 102.71 446.13 102.71C445.65 102.71 445.194 102.89 444.762 103.25C444.33 103.61 444 104.066 443.772 104.618V110H441.234V100.73ZM453.336 96.8601H456.234V99.2001H453.336V96.8601ZM451.932 107.822H453.66V102.908H451.932V100.73H456.198V107.822H457.746V110H451.932V107.822ZM463.572 110.27C462.036 110.27 460.842 109.862 459.99 109.046C459.15 108.23 458.73 107.078 458.73 105.59C458.73 104.582 458.928 103.694 459.324 102.926C459.72 102.146 460.278 101.546 460.998 101.126C461.718 100.694 462.552 100.478 463.5 100.478C463.944 100.478 464.406 100.532 464.886 100.64C465.378 100.736 465.756 100.85 466.02 100.982L465.534 103.124C465.258 102.992 464.952 102.89 464.616 102.818C464.292 102.734 463.986 102.692 463.698 102.692C462.954 102.692 462.354 102.944 461.898 103.448C461.454 103.952 461.232 104.618 461.232 105.446C461.232 106.286 461.46 106.934 461.916 107.39C462.384 107.846 463.044 108.074 463.896 108.074C464.46 108.074 465.066 107.966 465.714 107.75L466.092 109.802C465.312 110.114 464.472 110.27 463.572 110.27ZM472.186 110.27C470.686 110.27 469.504 109.838 468.64 108.974C467.788 108.11 467.362 106.91 467.362 105.374C467.362 104.378 467.548 103.514 467.92 102.782C468.292 102.038 468.814 101.468 469.486 101.072C470.17 100.676 470.968 100.478 471.88 100.478C473.224 100.478 474.256 100.91 474.976 101.774C475.696 102.638 476.056 103.886 476.056 105.518C476.056 105.794 476.05 105.998 476.038 106.13H469.918C470.038 106.766 470.314 107.252 470.746 107.588C471.178 107.912 471.76 108.074 472.492 108.074C472.936 108.074 473.398 108.02 473.878 107.912C474.358 107.792 474.778 107.636 475.138 107.444L475.552 109.478C475.072 109.73 474.538 109.922 473.95 110.054C473.374 110.198 472.786 110.27 472.186 110.27ZM473.626 104.222C473.59 103.706 473.41 103.298 473.086 102.998C472.762 102.686 472.33 102.53 471.79 102.53C471.274 102.53 470.848 102.68 470.512 102.98C470.188 103.28 469.984 103.694 469.9 104.222H473.626ZM484.456 110.27C483.412 110.27 482.59 109.874 481.99 109.082C481.402 108.278 481.108 107.162 481.108 105.734C481.108 104.042 481.546 102.746 482.422 101.846C483.31 100.934 484.57 100.478 486.202 100.478C486.406 100.478 486.712 100.49 487.12 100.514V96.8601H489.622V110H487.156L487.21 108.794H487.138C486.826 109.274 486.442 109.64 485.986 109.892C485.542 110.144 485.032 110.27 484.456 110.27ZM485.032 108.056C485.416 108.056 485.788 107.894 486.148 107.57C486.508 107.234 486.832 106.76 487.12 106.148V102.854C486.712 102.746 486.322 102.692 485.95 102.692C485.194 102.692 484.618 102.938 484.222 103.43C483.838 103.922 483.646 104.642 483.646 105.59C483.646 106.358 483.766 106.964 484.006 107.408C484.258 107.84 484.6 108.056 485.032 108.056ZM494.629 110.27C493.669 110.27 492.907 109.862 492.343 109.046C491.779 108.23 491.497 107.12 491.497 105.716C491.497 104.012 491.929 102.716 492.793 101.828C493.657 100.928 494.899 100.478 496.519 100.478C497.431 100.478 498.499 100.622 499.723 100.91V110H497.311L497.365 108.524H497.293C496.981 109.088 496.597 109.52 496.141 109.82C495.697 110.12 495.193 110.27 494.629 110.27ZM495.169 108.056C495.541 108.056 495.907 107.858 496.267 107.462C496.627 107.066 496.963 106.538 497.275 105.878V102.854C496.891 102.746 496.507 102.692 496.123 102.692C495.403 102.692 494.857 102.938 494.485 103.43C494.125 103.922 493.945 104.648 493.945 105.608C493.945 106.364 494.053 106.964 494.269 107.408C494.485 107.84 494.785 108.056 495.169 108.056ZM503.492 114.032C502.94 114.032 502.364 113.9 501.764 113.636L502.142 111.548C502.598 111.776 502.982 111.89 503.294 111.89C503.666 111.89 503.942 111.77 504.122 111.53C504.314 111.29 504.518 110.87 504.734 110.27L501.116 100.766L503.744 100.55L505.958 107.192L508.01 100.73H510.512C509.744 103.058 508.934 105.35 508.082 107.606C507.242 109.862 506.588 111.41 506.12 112.25C505.784 112.85 505.406 113.294 504.986 113.582C504.578 113.882 504.08 114.032 503.492 114.032Z" fill="#333333"/>
<circle cx="386" cy="136" r="10" fill="#FFEB39"/>
<path d="M373.404 54.0121H376.014V66.0001H373.404V54.0121ZM378.584 56.7301H381.068V58.3321C381.452 57.6961 381.896 57.2281 382.4 56.9281C382.904 56.6281 383.492 56.4781 384.164 56.4781C385.16 56.4781 385.94 56.7781 386.504 57.3781C387.068 57.9661 387.35 58.7881 387.35 59.8441V66.0001H384.812V60.2401C384.812 59.7601 384.692 59.3881 384.452 59.1241C384.212 58.8481 383.888 58.7101 383.48 58.7101C383 58.7101 382.544 58.8901 382.112 59.2501C381.68 59.6101 381.35 60.0661 381.122 60.6181V66.0001H378.584V56.7301ZM393.299 54.0121C393.647 54.0001 394.307 53.9941 395.279 53.9941C396.263 53.9941 396.929 54.0001 397.277 54.0121C398.513 54.0361 399.485 54.3661 400.193 55.0021C400.901 55.6381 401.255 56.5201 401.255 57.6481C401.255 58.4521 401.075 59.1661 400.715 59.7901C400.355 60.4021 399.845 60.8761 399.185 61.2121C398.537 61.5481 397.799 61.7161 396.971 61.7161H395.801V66.0001H393.299V54.0121ZM396.863 59.5921C397.451 59.5921 397.907 59.4241 398.231 59.0881C398.567 58.7521 398.735 58.2961 398.735 57.7201C398.735 56.6641 398.153 56.1361 396.989 56.1361H395.801V59.5921H396.863ZM403.107 56.7301H405.645V58.2421H405.789C406.137 57.6301 406.479 57.1801 406.815 56.8921C407.163 56.6041 407.595 56.4601 408.111 56.4601C408.327 56.4601 408.507 56.4841 408.651 56.5321L408.381 59.2681C408.069 59.1841 407.817 59.1421 407.625 59.1421C407.349 59.1421 407.103 59.1961 406.887 59.3041C406.683 59.4121 406.497 59.5561 406.329 59.7361C406.173 59.9161 405.945 60.1921 405.645 60.5641V66.0001H403.107V56.7301ZM414.21 66.2701C413.274 66.2701 412.446 66.0661 411.726 65.6581C411.018 65.2501 410.466 64.6801 410.07 63.9481C409.674 63.2041 409.476 62.3461 409.476 61.3741C409.476 60.4021 409.668 59.5501 410.052 58.8181C410.448 58.0741 411 57.4981 411.708 57.0901C412.428 56.6821 413.256 56.4781 414.192 56.4781C415.128 56.4781 415.95 56.6821 416.658 57.0901C417.378 57.4861 417.93 58.0501 418.314 58.7821C418.71 59.5141 418.908 60.3601 418.908 61.3201C418.908 62.2921 418.71 63.1561 418.314 63.9121C417.93 64.6561 417.378 65.2381 416.658 65.6581C415.95 66.0661 415.134 66.2701 414.21 66.2701ZM414.192 64.0741C414.84 64.0741 415.356 63.8281 415.74 63.3361C416.136 62.8321 416.334 62.1721 416.334 61.3561C416.334 60.5401 416.136 59.8921 415.74 59.4121C415.356 58.9201 414.84 58.6741 414.192 58.6741C413.544 58.6741 413.022 58.9201 412.626 59.4121C412.242 59.8921 412.05 60.5401 412.05 61.3561C412.05 62.1721 412.242 62.8321 412.626 63.3361C413.022 63.8281 413.544 64.0741 414.192 64.0741ZM423.971 70.0861C422.903 70.0861 421.859 69.9481 420.839 69.6721L421.325 67.4401C422.477 67.7761 423.437 67.9441 424.205 67.9441C424.817 67.9441 425.285 67.8481 425.609 67.6561C425.945 67.4641 426.179 67.1641 426.311 66.7561C426.455 66.3481 426.539 65.7901 426.563 65.0821H426.509C426.173 65.4661 425.783 65.7601 425.339 65.9641C424.895 66.1681 424.409 66.2701 423.881 66.2701C422.825 66.2701 421.997 65.8741 421.397 65.0821C420.809 64.2781 420.515 63.1681 420.515 61.7521C420.515 60.0361 420.953 58.7281 421.829 57.8281C422.717 56.9281 423.983 56.4781 425.627 56.4781C426.575 56.4781 427.703 56.6221 429.011 56.9101C429.035 59.3821 429.047 61.2421 429.047 62.4901C429.047 63.6061 429.041 64.4461 429.029 65.0101C429.005 66.7141 428.573 67.9861 427.733 68.8261C426.905 69.6661 425.651 70.0861 423.971 70.0861ZM424.547 64.0561C424.919 64.0561 425.273 63.9181 425.609 63.6421C425.957 63.3661 426.263 62.9761 426.527 62.4721L426.509 58.8541C426.113 58.7461 425.729 58.6921 425.357 58.6921C424.601 58.6921 424.025 58.9381 423.629 59.4301C423.245 59.9221 423.053 60.6361 423.053 61.5721C423.053 62.3521 423.179 62.9641 423.431 63.4081C423.695 63.8401 424.067 64.0561 424.547 64.0561ZM431.407 56.7301H433.945V58.2421H434.089C434.437 57.6301 434.779 57.1801 435.115 56.8921C435.463 56.6041 435.895 56.4601 436.411 56.4601C436.627 56.4601 436.807 56.4841 436.951 56.5321L436.681 59.2681C436.369 59.1841 436.117 59.1421 435.925 59.1421C435.649 59.1421 435.403 59.1961 435.187 59.3041C434.983 59.4121 434.797 59.5561 434.629 59.7361C434.473 59.9161 434.245 60.1921 433.945 60.5641V66.0001H431.407V56.7301ZM442.6 66.2701C441.1 66.2701 439.918 65.8381 439.054 64.9741C438.202 64.1101 437.776 62.9101 437.776 61.3741C437.776 60.3781 437.962 59.5141 438.334 58.7821C438.706 58.0381 439.228 57.4681 439.9 57.0721C440.584 56.6761 441.382 56.4781 442.294 56.4781C443.638 56.4781 444.67 56.9101 445.39 57.7741C446.11 58.6381 446.47 59.8861 446.47 61.5181C446.47 61.7941 446.464 61.9981 446.452 62.1301H440.332C440.452 62.7661 440.728 63.2521 441.16 63.5881C441.592 63.9121 442.174 64.0741 442.906 64.0741C443.35 64.0741 443.812 64.0201 444.292 63.9121C444.772 63.7921 445.192 63.6361 445.552 63.4441L445.966 65.4781C445.486 65.7301 444.952 65.9221 444.364 66.0541C443.788 66.1981 443.2 66.2701 442.6 66.2701ZM444.04 60.2221C444.004 59.7061 443.824 59.2981 443.5 58.9981C443.176 58.6861 442.744 58.5301 442.204 58.5301C441.688 58.5301 441.262 58.6801 440.926 58.9801C440.602 59.2801 440.398 59.6941 440.314 60.2221H444.04ZM451.051 66.2701C450.463 66.2701 449.893 66.2101 449.341 66.0901C448.801 65.9701 448.339 65.8081 447.955 65.6041L448.189 63.4441C448.597 63.6961 449.047 63.9001 449.539 64.0561C450.031 64.2121 450.493 64.2901 450.925 64.2901C451.333 64.2901 451.675 64.2181 451.951 64.0741C452.227 63.9181 452.365 63.6961 452.365 63.4081C452.365 63.1801 452.269 63.0061 452.077 62.8861C451.885 62.7541 451.519 62.5921 450.979 62.4001L450.493 62.2201C449.977 62.0281 449.557 61.8481 449.233 61.6801C448.909 61.5001 448.615 61.2301 448.351 60.8701C448.087 60.5101 447.955 60.0361 447.955 59.4481C447.955 58.5121 448.303 57.7861 448.999 57.2701C449.707 56.7421 450.625 56.4781 451.753 56.4781C452.641 56.4781 453.577 56.6521 454.561 57.0001L454.219 59.1421C453.871 58.9381 453.475 58.7761 453.031 58.6561C452.599 58.5241 452.191 58.4581 451.807 58.4581C451.411 58.4581 451.093 58.5241 450.853 58.6561C450.625 58.7881 450.511 58.9801 450.511 59.2321C450.511 59.4721 450.607 59.6521 450.799 59.7721C450.991 59.8921 451.315 60.0301 451.771 60.1861C452.131 60.3181 452.341 60.3961 452.401 60.4201C452.905 60.6241 453.325 60.8221 453.661 61.0141C453.997 61.2061 454.291 61.4941 454.543 61.8781C454.795 62.2501 454.921 62.7301 454.921 63.3181C454.921 64.3021 454.567 65.0401 453.859 65.5321C453.151 66.0241 452.215 66.2701 451.051 66.2701ZM459.401 66.2701C458.813 66.2701 458.243 66.2101 457.691 66.0901C457.151 65.9701 456.689 65.8081 456.305 65.6041L456.539 63.4441C456.947 63.6961 457.397 63.9001 457.889 64.0561C458.381 64.2121 458.843 64.2901 459.275 64.2901C459.683 64.2901 460.025 64.2181 460.301 64.0741C460.577 63.9181 460.715 63.6961 460.715 63.4081C460.715 63.1801 460.619 63.0061 460.427 62.8861C460.235 62.7541 459.869 62.5921 459.329 62.4001L458.843 62.2201C458.327 62.0281 457.907 61.8481 457.583 61.6801C457.259 61.5001 456.965 61.2301 456.701 60.8701C456.437 60.5101 456.305 60.0361 456.305 59.4481C456.305 58.5121 456.653 57.7861 457.349 57.2701C458.057 56.7421 458.975 56.4781 460.103 56.4781C460.991 56.4781 461.927 56.6521 462.911 57.0001L462.569 59.1421C462.221 58.9381 461.825 58.7761 461.381 58.6561C460.949 58.5241 460.541 58.4581 460.157 58.4581C459.761 58.4581 459.443 58.5241 459.203 58.6561C458.975 58.7881 458.861 58.9801 458.861 59.2321C458.861 59.4721 458.957 59.6521 459.149 59.7721C459.341 59.8921 459.665 60.0301 460.121 60.1861C460.481 60.3181 460.691 60.3961 460.751 60.4201C461.255 60.6241 461.675 60.8221 462.011 61.0141C462.347 61.2061 462.641 61.4941 462.893 61.8781C463.145 62.2501 463.271 62.7301 463.271 63.3181C463.271 64.3021 462.917 65.0401 462.209 65.5321C461.501 66.0241 460.565 66.2701 459.401 66.2701Z" fill="#2F4449"/>
<rect x="584" y="50.0001" width="22" height="22" rx="5" fill="#B9CFD6"/>
<rect x="597" y="68.0001" width="4" height="15" rx="1" transform="rotate(-180 597 68.0001)" fill="#6E97A5"/>
<rect x="597" y="68.0001" width="4" height="15" rx="1" transform="rotate(-180 597 68.0001)" fill="#6E97A5"/>
<rect x="587" y="63.0001" width="4" height="15" rx="1" transform="rotate(-90 587 63.0001)" fill="#6E97A5"/>
<rect x="587" y="63.0001" width="4" height="15" rx="1" transform="rotate(-90 587 63.0001)" fill="#6E97A5"/>
</svg>
