<svg width="12" height="15" viewBox="0 0 12 15" xmlns="http://www.w3.org/2000/svg">
<path d="M6 15L2.912 13.2359C2.03167 12.7341 1.29549 11.9849 0.782463 11.0688C0.26944 10.1526 -0.00105653 9.1041 3.10129e-06 8.03571V1.07143C0.000267839 0.787355 0.10571 0.514998 0.293189 0.314127C0.480668 0.113257 0.734868 0.000283648 1 0H11C11.2651 0.000283648 11.5193 0.113257 11.7068 0.314127C11.8943 0.514998 11.9997 0.787355 12 1.07143V8.03571C12.0011 9.1041 11.7306 10.1526 11.2175 11.0688C10.7045 11.9849 9.96833 12.7341 9.088 13.2359L6 15ZM1 1.07143V8.03571C0.999173 8.90989 1.22055 9.76781 1.64038 10.5174C2.06021 11.267 2.66264 11.8799 3.383 12.2904L6 13.7855L8.617 12.2909C9.33743 11.8804 9.93991 11.2674 10.3597 10.5177C10.7796 9.76802 11.0009 8.90999 11 8.03571V1.07143H1Z" />
<path d="M6 12.4698V2.14286H10V7.93125C9.99997 8.61028 9.82786 9.27656 9.50204 9.85898C9.17622 10.4414 8.70891 10.9181 8.15 11.2382L6 12.4698Z"/>
</svg>
